<svg width="1920" height="680" viewBox="0 0 1920 680" fill="none" xmlns="http://www.w3.org/2000/svg">
<g clip-path="url(#clip0_6_6512)">
<g opacity="0.1" filter="url(#filter0_d_6_6512)">
<path d="M1710.32 350.285L1767.26 414.037L1801.89 391.671L1719.08 344.851C1718.66 344.642 1718.24 344.642 1717.83 344.851L1710.73 347.777C1709.9 348.195 1709.48 349.449 1710.32 350.285Z" fill="#F4F4F4"/>
<path d="M1710.94 347.777C1709.9 348.195 1709.48 349.449 1710.32 350.285L1767.26 414.037L1801.89 391.671L1792.5 386.237C1777.27 401.286 1746.61 390.208 1710.94 347.777Z" fill="#EDEDED"/>
<path d="M1800.85 518.339L1778.94 435.566L1816.7 418.844L1810.23 513.949C1810.23 514.367 1810.02 514.785 1809.61 515.203L1803.35 519.593C1802.31 519.802 1801.05 519.384 1800.85 518.339Z" fill="#F4F4F4"/>
<path d="M1803.35 519.175C1802.31 519.802 1801.05 519.384 1800.85 518.339L1778.94 435.566L1816.7 418.844L1815.86 429.713C1795 434.103 1787.29 465.874 1803.35 519.175Z" fill="#EDEDED"/>
<path d="M1706.14 454.587C1748.07 426.369 1806.89 386.028 1821.7 378.921C1836.51 371.814 1854.45 374.114 1857.79 380.175C1861.13 386.446 1848.2 405.258 1837.14 410.692C1826.29 415.918 1722.41 460.439 1711.78 465.247C1701.35 470.054 1694.05 463.157 1706.14 454.587Z" fill="white"/>
<path d="M1788.96 423.861C1743.27 445.181 1711.57 461.067 1700.1 461.485C1698.63 466.292 1704.48 468.591 1711.98 465.247C1722.62 460.44 1826.5 415.918 1837.35 410.692C1848.2 405.467 1861.34 386.446 1858 380.175C1857.79 379.757 1857.58 379.548 1857.17 379.13C1851.95 391.671 1819.41 409.647 1788.96 423.861Z" fill="#EDEDED"/>
<path d="M1688.62 428.041L1706.77 455.841L1722.21 445.599L1693.21 426.16C1693 426.16 1692.79 425.951 1692.59 426.16L1689.04 427.205C1688.62 427.205 1688.41 427.623 1688.62 428.041Z" fill="#F4F4F4"/>
<path d="M1724.29 494.301L1711.15 463.993L1728.26 456.677L1728.46 491.584C1728.46 491.793 1728.46 492.002 1728.26 492.002L1725.54 494.301C1724.92 494.719 1724.5 494.51 1724.29 494.301Z" fill="#F4F4F4"/>
<path d="M1846.94 399.196C1849.03 396.27 1850.49 393.344 1851.12 390.626L1846.53 393.134C1846.94 395.016 1846.94 396.897 1846.94 399.196Z" fill="#8CD3F6"/>
<path d="M1845.9 391.253L1851.32 388.327C1851.32 386.655 1851.12 385.192 1850.49 383.938L1844.23 387.282C1844.86 388.327 1845.48 389.79 1845.9 391.253Z" fill="#8CD3F6"/>
<path d="M1835.47 377.667C1835.47 377.667 1837.35 378.712 1839.43 381.011L1844.02 378.503C1841.73 377.876 1838.81 377.458 1835.47 377.667Z" fill="#8CD3F6"/>
<path d="M1840.89 382.474C1841.73 383.31 1842.56 384.356 1843.19 385.61L1849.45 382.265C1848.61 381.22 1847.57 380.384 1846.32 379.757L1840.89 382.474Z" fill="#8CD3F6"/>
<path d="M1794.8 396.897L1796.67 400.241L1800.85 397.733L1798.97 394.18C1797.51 395.016 1796.05 396.061 1794.8 396.897Z" fill="#8CD3F6"/>
<path d="M1789.58 400.241L1791.46 403.586L1795.63 401.077L1793.75 397.733C1792.29 398.569 1790.83 399.405 1789.58 400.241Z" fill="#8CD3F6"/>
<path d="M1748.28 428.041L1749.32 430.131L1753.49 427.623L1752.24 425.533C1750.99 426.16 1749.74 426.996 1748.28 428.041Z" fill="#8CD3F6"/>
<path d="M1753.49 424.488L1754.75 426.787L1758.92 424.279L1757.67 421.98C1756.21 422.607 1754.75 423.652 1753.49 424.488Z" fill="#8CD3F6"/>
<path d="M1768.93 414.037L1770.39 416.754L1774.56 414.246L1773.1 411.319C1771.64 412.155 1770.18 413.201 1768.93 414.037Z" fill="#8CD3F6"/>
<path d="M1758.71 420.935L1759.96 423.234L1764.13 420.726L1762.67 418.217C1761.21 419.262 1759.96 420.098 1758.71 420.935Z" fill="#8CD3F6"/>
<path d="M1774.15 410.483L1775.81 413.41L1779.99 410.901L1778.32 407.766C1776.86 408.811 1775.4 409.647 1774.15 410.483Z" fill="#8CD3F6"/>
<path d="M1779.15 407.139L1780.82 410.274L1784.99 407.766L1783.32 404.631C1781.86 405.258 1780.61 406.303 1779.15 407.139Z" fill="#8CD3F6"/>
<path d="M1784.37 403.795L1786.03 406.93L1790.21 404.422L1788.33 401.077C1787.08 401.913 1785.83 402.75 1784.37 403.795Z" fill="#8CD3F6"/>
<path d="M1763.72 417.59L1765.18 420.098L1769.35 417.59L1767.89 414.873C1766.43 415.709 1765.18 416.545 1763.72 417.59Z" fill="#8CD3F6"/>
<path d="M1743.27 431.385L1744.32 433.267L1748.49 430.758L1747.45 428.877C1745.78 429.713 1744.53 430.549 1743.27 431.385Z" fill="#8CD3F6"/>
<path d="M1810.23 386.864L1812.11 390.417L1816.28 387.909L1814.4 384.356C1813.15 384.983 1811.9 385.819 1810.23 386.864Z" fill="#8CD3F6"/>
<path d="M1819.2 381.638C1818.16 382.056 1816.91 382.893 1815.66 383.729L1817.53 387.282L1821.08 384.983C1821.08 384.983 1820.04 383.102 1819.2 381.638Z" fill="#8CD3F6"/>
<path d="M1805.02 390.208L1806.89 393.762L1811.07 391.254L1809.19 387.7C1807.94 388.327 1806.48 389.163 1805.02 390.208Z" fill="#8CD3F6"/>
<path d="M1738.06 434.939L1738.89 436.611L1743.06 434.103L1742.02 432.431C1740.56 433.267 1739.31 434.103 1738.06 434.939Z" fill="#8CD3F6"/>
<path d="M1733.47 438.283L1734.3 439.747L1738.06 437.447L1737.22 435.984C1734.72 437.238 1733.47 438.283 1733.47 438.283Z" fill="#8CD3F6"/>
<path d="M1799.8 393.553L1801.68 397.106L1805.85 394.598L1803.97 391.044C1802.72 391.671 1801.26 392.508 1799.8 393.553Z" fill="#8CD3F6"/>
<path d="M1808.15 421.98L1806.27 418.635L1810.65 416.545L1812.53 420.098C1811.27 420.725 1809.81 421.352 1808.15 421.98Z" fill="#8CD3F6"/>
<path d="M1802.51 424.488L1800.64 421.143L1805.02 419.053L1806.89 422.398C1805.64 423.234 1803.97 423.861 1802.51 424.488Z" fill="#8CD3F6"/>
<path d="M1756.83 443.718L1755.79 441.628L1760.17 439.537L1761.42 441.628C1759.75 442.464 1758.29 443.091 1756.83 443.718Z" fill="#8CD3F6"/>
<path d="M1762.67 441.419L1761.42 439.119L1765.8 437.029L1767.05 439.328C1765.59 440.164 1764.13 440.791 1762.67 441.419Z" fill="#8CD3F6"/>
<path d="M1779.78 434.103L1778.32 431.386L1782.7 429.295L1784.16 432.222C1782.7 432.849 1781.24 433.476 1779.78 434.103Z" fill="#8CD3F6"/>
<path d="M1768.3 438.91L1767.05 436.611L1771.43 434.521L1772.89 437.029C1771.23 437.656 1769.76 438.283 1768.3 438.91Z" fill="#8CD3F6"/>
<path d="M1785.41 431.804L1783.74 428.877L1788.12 426.787L1789.79 429.922C1788.54 430.549 1786.87 431.177 1785.41 431.804Z" fill="#8CD3F6"/>
<path d="M1791.25 429.295L1789.58 426.16L1793.96 424.07L1795.63 427.205C1794.17 428.041 1792.71 428.668 1791.25 429.295Z" fill="#8CD3F6"/>
<path d="M1796.88 426.996L1795.21 423.861L1799.59 421.771L1801.47 425.115C1799.8 425.533 1798.34 426.369 1796.88 426.996Z" fill="#8CD3F6"/>
<path d="M1774.15 436.611L1772.69 434.103L1777.07 432.012L1778.53 434.73C1777.07 435.357 1775.61 435.984 1774.15 436.611Z" fill="#8CD3F6"/>
<path d="M1751.2 446.226L1750.16 444.345L1754.54 442.255L1755.58 444.136C1754.12 444.972 1752.45 445.599 1751.2 446.226Z" fill="#8CD3F6"/>
<path d="M1825.25 414.455L1823.37 410.901L1827.75 408.811L1829.63 412.364C1828.17 412.991 1826.71 413.619 1825.25 414.455Z" fill="#8CD3F6"/>
<path d="M1834.43 409.856C1833.39 410.483 1832.13 411.11 1830.67 411.737L1828.8 408.184L1832.55 406.512C1832.55 406.512 1833.59 408.393 1834.43 409.856Z" fill="#8CD3F6"/>
<path d="M1819.62 416.963L1817.74 413.41L1822.12 411.32L1824 414.873C1822.54 415.5 1821.08 416.336 1819.62 416.963Z" fill="#8CD3F6"/>
<path d="M1745.36 448.525L1744.53 446.853L1748.91 444.763L1749.95 446.435C1748.28 447.271 1746.82 447.898 1745.36 448.525Z" fill="#8CD3F6"/>
<path d="M1740.14 450.616L1739.52 449.152L1743.48 447.271L1744.32 448.734C1741.6 449.989 1740.14 450.616 1740.14 450.616Z" fill="#8CD3F6"/>
<path d="M1813.99 419.471L1812.11 415.918L1816.49 413.828L1818.37 417.381C1816.91 418.217 1815.45 418.844 1813.99 419.471Z" fill="#8CD3F6"/>
<path d="M1690.71 426.578L1689.04 427.205C1688.62 427.414 1688.41 427.832 1688.62 428.041L1706.77 455.841L1722.21 445.599L1718.87 443.3C1710.73 450.616 1697.17 443.509 1690.71 426.578Z" fill="#EDEDED"/>
<path d="M1726.59 493.256L1725.13 494.51C1724.71 494.719 1724.29 494.719 1724.08 494.301L1710.94 463.993L1728.05 456.677V460.857C1717.62 463.366 1716.16 478.624 1726.59 493.256Z" fill="#EDEDED"/>
</g>
<g opacity="0.2">
<path d="M786.043 415.709C786.043 417.172 786.252 418.426 786.669 419.472" stroke="#127E76" stroke-width="2" stroke-miterlimit="10" stroke-linecap="round"/>
<path d="M791.258 425.951C797.098 430.968 807.111 433.058 815.455 433.267C920.585 435.775 1038.65 391.881 1096.43 334.4C1137.52 293.64 1134.6 262.705 1123.34 254.553C1110.4 245.147 1048.24 259.988 1017.79 319.35C987.335 378.712 1025.51 431.386 1053.88 444.136C1082.24 456.886 1114.99 456.259 1145.03 449.362C1250.16 424.697 1325.05 327.92 1427.67 294.477C1445.61 288.624 1465.22 284.862 1483.58 289.251C1501.93 293.64 1519.04 308.272 1521.54 327.084C1523.63 342.552 1515.91 357.392 1507.77 370.56C1473.56 425.533 1424.54 471.1 1397.64 529.835C1392.63 540.704 1388.46 553.663 1393.88 564.323C1401.6 579.373 1422.25 580.418 1438.94 577.91C1526.13 565.16 1590.79 527.745 1676.32 479.252" stroke="#127E76" stroke-width="2" stroke-miterlimit="10" stroke-linecap="round" stroke-dasharray="3.76 3.76"/>
<path d="M1679.86 477.37C1680.9 476.743 1682.16 476.116 1683.2 475.489" stroke="#127E76" stroke-width="2" stroke-miterlimit="10" stroke-linecap="round"/>
</g>
</g>
<defs>
<filter id="filter0_d_6_6512" x="1682.54" y="338.694" width="181.987" height="186.951" filterUnits="userSpaceOnUse" color-interpolation-filters="sRGB">
<feFlood flood-opacity="0" result="BackgroundImageFix"/>
<feColorMatrix in="SourceAlpha" type="matrix" values="0 0 0 0 0 0 0 0 0 0 0 0 0 0 0 0 0 0 127 0" result="hardAlpha"/>
<feOffset/>
<feGaussianBlur stdDeviation="3"/>
<feColorMatrix type="matrix" values="0 0 0 0 0 0 0 0 0 0 0 0 0 0 0 0 0 0 0.24 0"/>
<feBlend mode="normal" in2="BackgroundImageFix" result="effect1_dropShadow_6_6512"/>
<feBlend mode="normal" in="SourceGraphic" in2="effect1_dropShadow_6_6512" result="shape"/>
</filter>
<clipPath id="clip0_6_6512">
<rect width="1107" height="329" fill="white" transform="translate(785 251)"/>
</clipPath>
</defs>
</svg>
